<svg xmlns="http://www.w3.org/2000/svg" width="133.767" height="14.705" viewBox="0 0 133.767 14.705"><defs><style>.a{opacity:0.4;}.b{fill:#162c5b;}</style></defs><g class="a" transform="translate(-199.83 -383.475)"><path class="b" d="M210.444,386.04V387.9a.191.191,0,0,1-.2.2h-8v3.808h6.6a.191.191,0,0,1,.2.2v1.863a.191.191,0,0,1-.2.2h-6.6v5.631a.191.191,0,0,1-.2.2h-2.005a.191.191,0,0,1-.2-.2V386.04a.191.191,0,0,1,.2-.2h10.209A.191.191,0,0,1,210.444,386.04Z" transform="translate(0 -2.099)"/><path class="b" d="M330.978,400.016H328.77a.22.22,0,0,1-.233-.182c-.294-1.165-.648-2.39-1.053-3.626h-6.775c-.4,1.236-.759,2.461-1.043,3.626a.221.221,0,0,1-.233.182h-2.127c-.142,0-.223-.081-.182-.223a94.318,94.318,0,0,1,5.185-13.692.388.388,0,0,1,.4-.263h2.876a.388.388,0,0,1,.4.263,92.722,92.722,0,0,1,5.185,13.692C331.2,399.935,331.12,400.016,330.978,400.016Zm-4.244-6c-.739-2.046-1.559-4.091-2.4-5.955h-.476c-.841,1.863-1.671,3.909-2.41,5.955Z" transform="translate(-104.209 -2.099)"/><path class="b" d="M474.014,390.949c0-4.4,2.9-7.474,7.029-7.474h.3a6.307,6.307,0,0,1,5.661,3.22.179.179,0,0,1-.071.284l-1.782.881a.247.247,0,0,1-.354-.091,3.767,3.767,0,0,0-3.534-1.985h-.3c-2.6,0-4.4,2.066-4.4,5.064s1.762,5.023,4.4,5.023h.3a4.158,4.158,0,0,0,3.454-1.458.257.257,0,0,1,.334-.071l1.833.891a.168.168,0,0,1,.1.142.267.267,0,0,1-.061.152,6.62,6.62,0,0,1-5.621,2.653H481C476.8,398.18,474.014,395.294,474.014,390.949Z" transform="translate(-243.62 0)"/><path class="b" d="M647.311,397.95v1.863a.191.191,0,0,1-.2.2H636.474a.191.191,0,0,1-.2-.2V386.04a.191.191,0,0,1,.2-.2h10.452a.191.191,0,0,1,.2.2V387.9a.191.191,0,0,1-.2.2h-8.244v3.686h6.7a.192.192,0,0,1,.2.2v1.843a.191.191,0,0,1-.2.2h-6.7v3.707h8.426A.192.192,0,0,1,647.311,397.95Z" transform="translate(-387.791 -2.099)"/><path class="b" d="M800.428,396.127c0,2.481-1.9,3.889-5.266,3.889h-6.968a.191.191,0,0,1-.2-.2V386.04a.191.191,0,0,1,.2-.2h6.35c3.271,0,5.054,1.3,5.054,3.666a2.965,2.965,0,0,1-2.39,3.058C799.455,393.038,800.428,394.385,800.428,396.127Zm-5.935-8.082H790.4v3.808h4.092c1.833,0,2.674-.6,2.674-1.9S796.326,388.045,794.493,388.045Zm3.464,7.869c0-1.317-.871-1.914-2.785-1.914H790.4v3.808h4.77C797.116,397.808,797.957,397.241,797.957,395.914Z" transform="translate(-522.597 -2.099)"/><path class="b" d="M937.62,390.828a6.947,6.947,0,0,1,7.292-7.353h.3a7.353,7.353,0,0,1,0,14.705h-.3A6.947,6.947,0,0,1,937.62,390.828Zm7.6,5.043c2.907,0,4.74-2,4.74-5.043s-1.833-5.044-4.74-5.044h-.3c-2.906,0-4.74,2-4.74,5.044s1.833,5.043,4.74,5.043Z" transform="translate(-655.547 0)"/><path class="b" d="M1108.054,390.828a6.947,6.947,0,0,1,7.292-7.353h.3a7.353,7.353,0,0,1,0,14.705h-.3A6.947,6.947,0,0,1,1108.054,390.828Zm7.6,5.043c2.906,0,4.74-2,4.74-5.043s-1.833-5.044-4.74-5.044h-.3c-2.907,0-4.739,2-4.739,5.044s1.833,5.043,4.739,5.043Z" transform="translate(-806.982 0)"/><path class="b" d="M1299.514,400.016H1296.9a.385.385,0,0,1-.354-.172,55.362,55.362,0,0,0-5.844-5.884h-1.175v5.854a.191.191,0,0,1-.2.2h-2.005a.191.191,0,0,1-.2-.2V386.04a.191.191,0,0,1,.2-.2h2.005a.191.191,0,0,1,.2.2v5.59h1.2a43.5,43.5,0,0,0,5.286-5.641.325.325,0,0,1,.3-.152h2.471c.121,0,.182.061.182.142a.25.25,0,0,1-.071.152,50.464,50.464,0,0,1-6.33,6.583,61.048,61.048,0,0,1,7.059,7.049C1299.737,399.894,1299.676,400.016,1299.514,400.016Z" transform="translate(-966.085 -2.099)"/></g></svg>