<svg xmlns="http://www.w3.org/2000/svg" width="106.93" height="30.333" viewBox="0 0 106.93 30.333"><defs><style>.a{fill:#162c5b;opacity:0.4;}</style></defs><path class="a" d="M5.506.105A10.056,10.056,0,0,0,.149,6.859c-.964,4.117,3.044,5.855,3.372,5.288.385-.673-.721-.9-.946-3.033a8.992,8.992,0,0,1,2.6-7.2c.3-.247.287.1.287.745,0,1.161-.065,11.544-.065,13.712a18.868,18.868,0,0,1-.342,4.771c-.218.928-.571,1.554-.305,1.8.3.269,1.581-.371,2.323-1.407a7.743,7.743,0,0,0,1.258-4.35c.065-1.949.062-5.048.065-6.812,0-1.622.025-6.365-.025-9.22C8.361.454,6.419-.277,5.506.105M106.447,15.511c-.313,0-.462.327-.582.877-.415,1.917-.851,2.349-1.415,2.349-.629,0-1.193-.949-1.342-2.848a64,64,0,0,1,.051-6.976c.029-.56-.124-1.116-1.63-1.665-.65-.233-1.593-.582-2.061.553A28.222,28.222,0,0,0,97.5,14.573c0,.054-.069.062-.08-.062a53.424,53.424,0,0,1-.272-5.485,1.649,1.649,0,0,0-.818-1.567c-.44-.276-1.779-.771-2.263-.185a12.579,12.579,0,0,0-1.4,3.3c-.408,1.244-.691,2.088-.691,2.088s0-3.354.011-4.627a.656.656,0,0,0-.425-.669,8.9,8.9,0,0,0-1.7-.345c-.462,0-.571.258-.571.633,0,.047-.076,4.411-.076,7.463v.429c-.251,1.4-1.08,3.31-1.978,3.31s-1.324-.8-1.324-4.434c0-2.121.066-3.044.095-4.579.018-.884.054-1.564.051-1.72-.008-.469-.826-.71-1.2-.8a3.633,3.633,0,0,0-.974-.109.608.608,0,0,0-.622.6v.509A3.484,3.484,0,0,0,81.512,6.91a3.349,3.349,0,0,0-3.856,1.454,8.839,8.839,0,0,0-1.564,4.481,13.152,13.152,0,0,0,.163,4.07c-.32,1.371-.909,1.935-1.553,1.935-.939,0-1.614-1.528-1.538-4.172a24.131,24.131,0,0,1,.781-4.724,1.534,1.534,0,0,0-.3-1.527,1.906,1.906,0,0,0-1.876-.306c-.659.156-1.608.324-2.47.452A5.371,5.371,0,0,0,69.394,8c.222-1.924-1.87-1.768-2.535-1.153a2.357,2.357,0,0,0-.774,1.578,1.86,1.86,0,0,0,.844,1.819,18.7,18.7,0,0,1-1.978,4.921A20.8,20.8,0,0,1,63.716,17.1c0-.222,0-.448,0-.669-.008-3.183.032-5.688.051-6.59.018-.884.055-1.546.055-1.7-.008-.342-.207-.476-.63-.637a4.55,4.55,0,0,0-1.265-.287c-.571-.043-.92.262-.909.622v.484A3.519,3.519,0,0,0,59.279,6.91,3.351,3.351,0,0,0,55.42,8.364a9.665,9.665,0,0,0-1.568,4.463,13.68,13.68,0,0,0,.084,3.834c-.218,1.069-.84,2.189-1.545,2.189-.9,0-1.412-.8-1.412-4.434,0-2.121.066-3.044.1-4.579.018-.884.051-1.564.047-1.72,0-.469-.821-.71-1.2-.8a3.642,3.642,0,0,0-1-.109.649.649,0,0,0-.593.575v.531A3.509,3.509,0,0,0,46.586,6.91a3.358,3.358,0,0,0-3.852,1.454,8.463,8.463,0,0,0-1.571,4.445,16.042,16.042,0,0,0-.116,1.942c-.28,1.716-1.52,3.7-2.532,3.7-.6,0-1.164-1.15-1.164-3.6,0-3.266.2-7.921.24-8.372,0,0,1.28-.022,1.531-.025.637,0,1.218.011,2.066-.033.429-.022.84-1.553.4-1.745a15.287,15.287,0,0,0-2.168-.171c-.472-.011-1.779-.109-1.779-.109s.117-3.088.143-3.412C37.8.7,37.453.56,37.25.476A7.053,7.053,0,0,0,35.8.061c-.724-.149-1.047,0-1.109.6-.095.921-.146,3.62-.146,3.62-.531,0-2.331-.106-2.859-.106-.49,0-1.022,2.11-.341,2.135.782.029,2.139.059,3.04.083,0,0-.04,4.732-.04,6.191v.451a7.164,7.164,0,0,1-2.24,3.983c.375-1.713-.389-3-1.771-4.081-.509-.4-1.513-1.164-2.637-1.99a6.834,6.834,0,0,0,1.229-1.931c.408-.913.426-1.964-.578-2.193a3,3,0,0,0-3.433,2.139,2.475,2.475,0,0,0,.472,2.528l.142.175c-.371.72-.887,1.691-1.32,2.444C23,16.2,22.087,17.854,21.4,17.854c-.553,0-.546-1.677-.546-3.248,0-1.353.1-3.393.182-5.5a1.541,1.541,0,0,0-.909-1.455A4.09,4.09,0,0,0,18.574,7c-.654,0-2.553.087-4.346,5.27-.226.655-.67,1.844-.67,1.844l.04-6.234a.433.433,0,0,0-.254-.382A4.456,4.456,0,0,0,11.518,7c-.346,0-.517.16-.517.476l-.058,9.747a14.418,14.418,0,0,0,.091,1.986,2.106,2.106,0,0,0,.338.872,1,1,0,0,0,.593.378c.258.055,1.68.233,1.753-.309a20.329,20.329,0,0,1,.84-3.982c1.164-4.088,2.677-6.081,3.39-6.791.127-.123.269-.131.261.073-.032.9-.138,3.135-.21,5.037-.193,5.1.731,6.037,2.058,6.037,1.011,0,2.437-1.007,3.968-3.553.956-1.59,1.88-3.143,2.549-4.266.459.428.982.891,1.5,1.386,1.211,1.145,1.608,2.236,1.342,3.27-.2.792-.96,1.607-2.31.815-.393-.23-.56-.408-.956-.67a.678.678,0,0,0-.731-.036,2.6,2.6,0,0,0-.964,1.466c-.156.586.429.891,1.036,1.16a7.873,7.873,0,0,0,2.357.469c2.79.095,5.023-1.346,6.576-5.055.28,3.2,1.462,5.019,3.517,5.019,1.378,0,2.757-1.779,3.361-3.528a6.167,6.167,0,0,0,.76,1.859c1.586,2.509,4.662,1.971,6.2-.16a4.019,4.019,0,0,0,.553-.9,2.911,2.911,0,0,0,2.775,2.72c1.043,0,2.113-.494,2.865-2.189a4.86,4.86,0,0,0,.3.528c1.582,2.509,4.659,1.971,6.2-.16.069-.106.135-.193.189-.277l.048,1.324s-.884.808-1.426,1.305c-2.382,2.186-4.194,3.845-4.328,5.772-.167,2.462,1.826,3.375,3.338,3.495a4.247,4.247,0,0,0,3.818-2A11.385,11.385,0,0,0,63.8,22.563c-.015-.931-.037-2.109-.059-3.378a26.19,26.19,0,0,0,2.652-3.637,27.078,27.078,0,0,0,2.476-5.31s.884.008,1.823-.051c.3-.018.389.044.331.262-.066.265-1.185,4.59-.163,7.471a3.612,3.612,0,0,0,3.215,2.607,3.186,3.186,0,0,0,2.7-2.058c.069.135.139.269.219.393,1.582,2.509,4.648,1.967,6.2-.16a6.2,6.2,0,0,0,.549-.9,3.019,3.019,0,0,0,2.884,2.728c.971,0,1.887-.4,2.633-2.157a7.634,7.634,0,0,0,.156,1.608c.047.124.324.277.52.353a3.969,3.969,0,0,0,2.12.1c.233-.047.415-.229.437-.709a28.238,28.238,0,0,1,.407-4.946,14.578,14.578,0,0,1,1.524-4.161c.157-.284.338-.331.342-.033.011.607.044,2.39.294,4.79a10.774,10.774,0,0,0,.611,3.135A1.722,1.722,0,0,0,97.4,19.5c.342,0,1.055-.095.993-.7a19.1,19.1,0,0,1,.651-4.695,23.044,23.044,0,0,1,1.349-3.79c.095-.207.135-.047.135-.015a34.061,34.061,0,0,0,.3,7.078c.648,2.834,2.513,3.15,3.164,3.15,1.386,0,2.525-1.055,2.906-3.833.095-.67-.044-1.186-.455-1.186M48.295,13.795a9.036,9.036,0,0,1-.822,3.59c-.837,1.618-2.484,2.128-3.208-.2a12.415,12.415,0,0,1-.127-5.223c.32-1.84,1.131-3.142,2.4-3.022,1.295.128,1.927,1.8,1.76,4.86m12.689.022a9.968,9.968,0,0,1-.825,3.568c-.811,1.629-2.506,2.139-3.208-.2a11.722,11.722,0,0,1-.127-4.976c.31-1.695,1.055-3.27,2.4-3.27,1.305,0,1.949,1.433,1.763,4.881m.331,9.47c-.018,2.535-.415,4.754-1.266,5.4a1.533,1.533,0,0,1-2.509-1.622c.3-1.637,1.713-3.306,3.779-5.347,0,0,.007.465,0,1.567m21.909-9.456a9,9,0,0,1-.829,3.553c-.811,1.629-2.491,2.135-3.208-.2a13.225,13.225,0,0,1-.127-5.186c.284-1.812,1.08-3.179,2.4-3.059s1.91,1.8,1.768,4.9" transform="translate(0 0)"/></svg>