<svg xmlns="http://www.w3.org/2000/svg" width="117.208" height="23.446" viewBox="0 0 117.208 23.446"><defs><style>.a{opacity:0.4;}.b{fill:#162c5b;}</style></defs><g class="a" transform="translate(-50.461 -83.561)"><g transform="translate(50.461 83.561)"><path class="b" d="M-337.508,512.474a8.863,8.863,0,0,1-5.45-4.512c-.821-1.657-.82-1.645-.822-9.261-.1-6.588-.06-6.8.379-7.436a2.841,2.841,0,0,1,4.338-.7c.947.833,1.022,1.116,1.022,3.843v2.365h3.978a45.466,45.466,0,0,1,4.575.128,2.69,2.69,0,0,1,1.423,4.482,3.6,3.6,0,0,1-.778.586c-.452.244-.62.254-4.833.289l-4.364.036v1.055c0,1.534.159,2.036.871,2.748.831.831,1.053.871,4.951.874,3.024,0,3.3.02,3.785.241a2.846,2.846,0,0,1,.95,4.6c-.8.888-.853.9-5.285.891-3.459,0-4.022-.031-4.74-.224Zm17.714.05a8.521,8.521,0,0,1-4.8-3.533c-1.048-1.592-1.252-2.712-1.257-6.895,0-3.608.068-4.062.762-4.776a2.294,2.294,0,0,1,2-.836,2.015,2.015,0,0,1,1.4.352,3.032,3.032,0,0,1,.928.928c.44.762.359,1.081.413,4.215.057,3.566.064,3.651.333,4.084a2.544,2.544,0,0,0,4.035.462c.72-.7.787-1.113.787-4.8,0-3.029.014-3.233.248-3.7a2.642,2.642,0,0,1,2.152-1.566A2.852,2.852,0,0,1-310,497.987c.247.463.262.653.318,4.068-.02,2.841.114,3.673.382,4.071a2.559,2.559,0,0,0,3.785.585c.807-.708.806-.706.873-4.664.057-3.4.073-3.6.318-4.059a2.725,2.725,0,0,1,4.774-.223c.734,1.017.413,3.17.413,4.558a17.218,17.218,0,0,1-.373,4.891,8.363,8.363,0,0,1-5.133,5.166,10.717,10.717,0,0,1-4.432.159,8.2,8.2,0,0,1-2.719-1.248l-.7-.49-.7.49a8.023,8.023,0,0,1-2.636,1.237,11.618,11.618,0,0,1-3.961,0Zm24.334.017a3.63,3.63,0,0,1-1.492-1.4c-.255-.476-.257-.528-.257-6.514,0-5.76.01-6.055.23-6.5a2.911,2.911,0,0,1,4.7-.826c.888.888.886.866.848,7.513-.033,5.736-.038,5.853-.287,6.313a3.306,3.306,0,0,1-1.471,1.4A4.014,4.014,0,0,1-295.46,512.542Zm12.3-.066a8.764,8.764,0,0,1-5.829-5.29c-.517-1.376-.558-2.077-.518-8.889.036-6.284.041-6.393.29-6.854a2.922,2.922,0,0,1,5.374.461,11.473,11.473,0,0,1,.172,2.713v2.136l2.783.042c2.573.039,2.818.061,3.251.293a2.711,2.711,0,0,1,.017,4.875c-.455.243-.66.262-3.278.3l-2.792.039.039,1.367c.045,1.6.227,2.074,1.019,2.681.693.531,1.13.618,3.121.62,1.6,0,1.811.027,2.35.278a2.88,2.88,0,0,1,0,5.244A18.888,18.888,0,0,1-283.165,512.476Zm14.917.006a8.89,8.89,0,0,1-6.137-6.279c-.188-.736-.209-1.479-.209-7.5.045-6.245-.265-6,.32-7.286a2.952,2.952,0,0,1,3.535-1.431,3.626,3.626,0,0,1,1.816,1.816,19.34,19.34,0,0,1,.128,2.713v2.255h2.386c2.733,0,3.458.1,4.117.574a2.745,2.745,0,0,1,.061,4.331c-.7.5-1.356.6-4.109.6H-268.8v1.061a3.379,3.379,0,0,0,.714,2.614c.754.857,1.034.938,3.455,1.009,2.108.061,2.122.063,2.695.417a3.316,3.316,0,0,1,1.381,2.038,3.058,3.058,0,0,1-1.352,2.906l-.49.325-2.528.025a11.317,11.317,0,0,1-3.328-.193Zm14.625.053A8.441,8.441,0,0,1-257.833,510a7.68,7.68,0,0,1-2.173-5.646,7.955,7.955,0,0,1,.8-3.654,6.555,6.555,0,0,1,2.188-2.7c2.772-1.978,7.7-2.1,10.8-.271a7.977,7.977,0,0,1,2.829,3.037c1.138,2.309,1.024,4.4-.278,5.08-.451.235-.661.246-5.419.278l-4.95.033v.307c0,.479.763,1.129,1.6,1.364a16.09,16.09,0,0,0,3.853.2,33.333,33.333,0,0,1,3.58.118,2.345,2.345,0,0,1,.647,4.272c-.575.389-.922.291-4.6.288a29.512,29.512,0,0,1-4.676-.166Zm5.151-10.4c-.221-.739-.853-1.177-2.009-1.391-1.23-.227-2.95.281-3.282.971-.146.3-.286.649-.286.649s1.024.034,2.839.034h2.816Zm8.842,10.349a3.233,3.233,0,0,1-1.4-1.659,28.028,28.028,0,0,1-.089-4.02c.043-3.476.048-3.542.364-4.49a8.335,8.335,0,0,1,5.644-5.256,29.36,29.36,0,0,1,6.3-.174,2.621,2.621,0,0,1,2.194,2.606,2.641,2.641,0,0,1-1.45,2.47c-.445.235-.7.26-3.237.317-2.63.059-2.773.074-3.2.336a2.562,2.562,0,0,0-1.128,1.483,27.6,27.6,0,0,0-.129,3.521c0,3.052,0,3.053-.305,3.664a2.547,2.547,0,0,1-.849.988,2.013,2.013,0,0,1-1.424.409A2.221,2.221,0,0,1-239.63,512.483Zm-55.974-17.77a2.859,2.859,0,0,1-.653-4.731,2.529,2.529,0,0,1,1.919-.707,2.768,2.768,0,0,1,2.594,1.56,2.894,2.894,0,0,1-3.86,3.877Z" transform="translate(343.824 -489.275)"/></g></g></svg>