<svg xmlns="http://www.w3.org/2000/svg" width="114.925" height="26.433" viewBox="0 0 114.925 26.433"><defs><style>.a{opacity:0.4;}.b{fill:#162c5b;stroke:rgba(0,0,0,0);}</style></defs><g class="a" transform="translate(-84.05 -84.539)"><path class="b" d="M120.124,89.01a4.551,4.551,0,0,0-3.212-3.212c-2.833-.759-14.195-.759-14.195-.759s-11.362,0-14.195.759a4.551,4.551,0,0,0-3.212,3.212c-.759,2.833-.759,8.745-.759,8.745s0,5.912.759,8.745a4.55,4.55,0,0,0,3.212,3.212c2.833.759,14.195.759,14.195.759s11.362,0,14.195-.759a4.55,4.55,0,0,0,3.212-3.212c.759-2.833.759-8.745.759-8.745S120.883,91.844,120.124,89.01Zm-21.04,14.2v-10.9l9.439,5.45Z"/><g transform="translate(124.477 86.039)"><path class="b" d="M256.227,125.44a3.955,3.955,0,0,1-1.533-2.26,14.782,14.782,0,0,1-.455-4.079v-2.312a13.405,13.405,0,0,1,.519-4.131,4.145,4.145,0,0,1,1.624-2.274,5.26,5.26,0,0,1,2.9-.714,4.942,4.942,0,0,1,2.832.728,4.17,4.17,0,0,1,1.559,2.273,13.943,13.943,0,0,1,.494,4.118V119.1a14.182,14.182,0,0,1-.481,4.092,4.02,4.02,0,0,1-1.559,2.261,6.391,6.391,0,0,1-5.9-.013Zm4.027-2.494a7.771,7.771,0,0,0,.3-2.546v-4.963a7.68,7.68,0,0,0-.3-2.507,1.07,1.07,0,0,0-1.052-.793,1.054,1.054,0,0,0-1.026.793,7.664,7.664,0,0,0-.3,2.507V120.4a8.087,8.087,0,0,0,.286,2.546,1.045,1.045,0,0,0,1.039.779A1.067,1.067,0,0,0,260.254,122.946Z" transform="translate(-243.416 -103.303)"/><path class="b" d="M437.185,119.166v.805a21.171,21.171,0,0,0,.091,2.3,2.18,2.18,0,0,0,.377,1.117,1.072,1.072,0,0,0,.883.351,1.112,1.112,0,0,0,1.1-.624,5.423,5.423,0,0,0,.325-2.079l3.092.182a4.876,4.876,0,0,1,.026.572,4.225,4.225,0,0,1-1.208,3.3,4.921,4.921,0,0,1-3.417,1.091,4.067,4.067,0,0,1-3.716-1.663,9.737,9.737,0,0,1-1.065-5.145v-2.78a9.629,9.629,0,0,1,1.1-5.236,4.21,4.21,0,0,1,3.78-1.65,5,5,0,0,1,2.832.676,3.627,3.627,0,0,1,1.39,2.1,15.223,15.223,0,0,1,.4,3.95v2.728Zm.455-6.7a2.191,2.191,0,0,0-.364,1.1,21.505,21.505,0,0,0-.091,2.325v1.143h2.624v-1.143a19.368,19.368,0,0,0-.1-2.325,2.226,2.226,0,0,0-.377-1.117,1.041,1.041,0,0,0-.844-.325A1.022,1.022,0,0,0,437.639,112.462Z" transform="translate(-369.189 -103.33)"/><path class="b" d="M222.131,105.807l-4.079-14.732h3.56l1.429,6.678q.546,2.469.805,4.209h.1q.182-1.247.806-4.183l1.481-6.7h3.56l-4.131,14.732v7.068h-3.534Z" transform="translate(-218.052 -90.27)"/><path class="b" d="M303.362,110.711v15.927h-2.806l-.312-1.948h-.078a3.669,3.669,0,0,1-3.43,2.208,2.694,2.694,0,0,1-2.338-1.039,5.579,5.579,0,0,1-.753-3.248v-11.9h3.586V122.4a3.57,3.57,0,0,0,.234,1.52.809.809,0,0,0,.78.455,1.59,1.59,0,0,0,.9-.286,1.769,1.769,0,0,0,.637-.727V110.711Z" transform="translate(-271.036 -104.033)"/><path class="b" d="M364.858,110.711v15.927h-2.806l-.312-1.948h-.078a3.668,3.668,0,0,1-3.43,2.208,2.694,2.694,0,0,1-2.338-1.039,5.576,5.576,0,0,1-.753-3.248v-11.9h3.586V122.4a3.57,3.57,0,0,0,.234,1.52.809.809,0,0,0,.78.455,1.591,1.591,0,0,0,.9-.286,1.769,1.769,0,0,0,.637-.727V110.711Z" transform="translate(-314.141 -104.033)"/><path class="b" d="M333.809,93.961h-3.56v18.915h-3.508V93.961h-3.56V91.077h10.627Z" transform="translate(-291.74 -90.271)"/><path class="b" d="M404.567,97.607a4.1,4.1,0,0,0-1.052-2.182,2.827,2.827,0,0,0-2-.676,3.318,3.318,0,0,0-1.845.559,3.8,3.8,0,0,0-1.325,1.468h-.026V88.383h-3.456v22.6h2.962l.364-1.507h.078a3.041,3.041,0,0,0,1.247,1.273,3.7,3.7,0,0,0,1.845.468,2.824,2.824,0,0,0,2.676-1.676,12.061,12.061,0,0,0,.857-5.235v-2.52A20.935,20.935,0,0,0,404.567,97.607Zm-3.287,6.5a20.15,20.15,0,0,1-.143,2.728,2.948,2.948,0,0,1-.481,1.4,1.111,1.111,0,0,1-.909.416,1.659,1.659,0,0,1-.818-.208,1.565,1.565,0,0,1-.611-.624V98.777a2.261,2.261,0,0,1,.624-1.065,1.38,1.38,0,0,1,.961-.416.97.97,0,0,1,.845.429,3.3,3.3,0,0,1,.416,1.442,26.946,26.946,0,0,1,.117,2.884Z" transform="translate(-341.983 -88.383)"/></g></g></svg>